<svg width="16" height="12" viewBox="0 0 16 12" fill="none" xmlns="http://www.w3.org/2000/svg">
<path fill-rule="evenodd" clip-rule="evenodd" d="M0.861341 10.8614C0.799357 10.9234 0.750189 10.997 0.716644 11.078C0.683098 11.159 0.665833 11.2458 0.665833 11.3334C0.665833 11.4211 0.683098 11.5079 0.716644 11.5889C0.750189 11.6698 0.799357 11.7434 0.861341 11.8054C0.923325 11.8674 0.996911 11.9166 1.0779 11.9501C1.15888 11.9837 1.24568 12.0009 1.33334 12.0009C1.421 12.0009 1.5078 11.9837 1.58879 11.9501C1.66977 11.9166 1.74336 11.8674 1.80534 11.8054L7.13867 6.47208C7.20076 6.41015 7.25002 6.33658 7.28363 6.25559C7.31723 6.1746 7.33453 6.08777 7.33453 6.00008C7.33453 5.91239 7.31723 5.82556 7.28363 5.74457C7.25002 5.66357 7.20076 5.59001 7.13867 5.52808L1.80534 0.194746C1.74336 0.132762 1.66977 0.0835937 1.58879 0.0500482C1.5078 0.0165027 1.421 -0.000762939 1.33334 -0.000762939C1.24568 -0.00076294 1.15888 0.0165027 1.0779 0.0500482C0.996911 0.0835937 0.923325 0.132762 0.861341 0.194746C0.799357 0.25673 0.750189 0.330315 0.716644 0.411301C0.683098 0.492287 0.665833 0.579087 0.665833 0.666746C0.665833 0.754404 0.683098 0.841204 0.716644 0.92219C0.750189 1.00318 0.799357 1.07676 0.861341 1.13875L5.72401 6.00008L0.861341 10.8614ZM8.86134 10.8614C8.73616 10.9866 8.66583 11.1564 8.66583 11.3334C8.66583 11.5104 8.73616 11.6802 8.86134 11.8054C8.98652 11.9306 9.15631 12.0009 9.33334 12.0009C9.51038 12.0009 9.68016 11.9306 9.80534 11.8054L15.1387 6.47208C15.2008 6.41015 15.25 6.33658 15.2836 6.25559C15.3172 6.1746 15.3345 6.08777 15.3345 6.00008C15.3345 5.91239 15.3172 5.82556 15.2836 5.74457C15.25 5.66357 15.2008 5.59001 15.1387 5.52808L9.80534 0.194746C9.68016 0.0695635 9.51038 -0.000762939 9.33334 -0.000762939C9.15631 -0.000762939 8.98652 0.0695635 8.86134 0.194746C8.73616 0.319928 8.66583 0.489711 8.66583 0.666746C8.66583 0.84378 8.73616 1.01356 8.86134 1.13875L13.724 6.00008L8.86134 10.8614Z" fill="white"/>
</svg>
