<svg width="20" height="20" viewBox="0 0 20 20" fill="none" xmlns="http://www.w3.org/2000/svg">
<path d="M9.0196 9.8972C9.54183 10.2454 10.4582 10.2454 10.9805 9.89716C10.9806 9.89712 10.9807 9.89705 10.9808 9.89701L19.8818 3.96292C19.5899 3.11854 18.7874 2.51025 17.845 2.51025H2.15494C1.21255 2.51025 0.410086 3.11854 0.118092 3.96292L9.01933 9.89705C9.01944 9.89712 9.01952 9.89712 9.0196 9.8972Z" fill="#628578"/>
<path d="M11.6308 11.5795C11.6307 11.5796 11.6306 11.5797 11.6305 11.5797C11.1734 11.8844 10.5866 12.0368 9.99999 12.0368C9.41327 12.0368 8.8267 11.8845 8.36955 11.5797C8.36947 11.5796 8.36943 11.5796 8.36936 11.5795L0 6V16.042C0 17.2301 0.966687 18.1968 2.15494 18.1968H17.8451C19.0333 18.1968 20 17.2301 20 16.042V6L11.6308 11.5795Z" fill="#628578"/>
</svg>
