<svg width="14" height="20" viewBox="0 0 14 20" fill="none" xmlns="http://www.w3.org/2000/svg">
<path d="M7.00174 0C3.24978 0 0.206581 3.02169 0.206581 6.74865C0.206581 8.65632 2.07762 12.0722 2.07762 12.0722L6.75173 20L11.6276 12.1641C11.6276 12.1641 13.794 8.90517 13.794 6.74865C13.7934 3.02169 10.7525 0 7.00174 0ZM6.96976 10.4669C4.82138 10.4669 3.08117 8.72609 3.08117 6.57538C3.08117 4.42816 4.82138 2.68795 6.96976 2.68795C9.11698 2.68795 10.8595 4.42758 10.8595 6.57538C10.8595 8.72609 9.11698 10.4669 6.96976 10.4669Z" fill="#628578"/>
<path d="M7.77911 4.20557H6.24356V5.95509H4.45567V7.49297H6.24356V9.29423H7.77911V7.49297H9.54492V5.95509H7.77911V4.20557Z" fill="#628578"/>
</svg>
