<svg width="20" height="20" viewBox="0 0 20 20" fill="none" xmlns="http://www.w3.org/2000/svg">
<path d="M17.6413 0.0012207H2.42907C1.11858 0.0012207 0 1.23221 0 2.53869V17.7607C0 19.0668 1.11858 19.9989 2.42907 19.9989H17.6413C18.9517 19.9989 20 19.0668 20 17.7607V2.53869C20 1.23221 18.9517 0.0012207 17.6413 0.0012207ZM17.1708 2.85795C17.5499 2.85795 17.8573 3.16536 17.8573 3.54451V5.7428C17.8573 6.12195 17.5499 6.42936 17.1708 6.42936H14.9722C14.593 6.42936 14.2856 6.12195 14.2856 5.7428V3.54451C14.2856 3.16536 14.593 2.85795 14.9722 2.85795H17.1708ZM10.0583 6.34476C12.1779 6.34476 13.896 8.05915 13.896 10.173C13.896 12.2871 12.1779 14.0015 10.0583 14.0015C7.93908 14.0015 6.22058 12.2871 6.22058 10.173C6.22058 8.05915 7.93903 6.34476 10.0583 6.34476ZM17.8573 17.2502C17.8573 17.5573 17.5309 17.8565 17.2228 17.8565H2.89439C2.58637 17.8565 2.14271 17.5573 2.14271 17.2502V8.57172H4.20353C4.06323 9.28613 3.98752 9.6193 3.98752 10.173C3.98752 13.5124 6.7107 16.2285 10.0583 16.2285C13.4061 16.2285 16.1294 13.5117 16.1294 10.1723C16.1294 9.6193 16.0536 9.28613 15.914 8.57172H17.8573V17.2502Z" fill="#628578"/>
</svg>
