<svg width="30" height="30" viewBox="0 0 30 30" fill="none" xmlns="http://www.w3.org/2000/svg">
<g clip-path="url(#clip0)">
<path d="M15.002 8.81836C11.5934 8.81836 8.82031 11.5915 8.82031 15C8.82031 18.4085 11.5934 21.1816 15.002 21.1816C18.4105 21.1816 21.1836 18.4085 21.1836 15C21.1836 11.5915 18.4107 8.81836 15.002 8.81836Z" fill="#628578"/>
<path d="M26.9772 3.02284C25.0278 1.07346 22.446 0 19.7072 0H10.2928C7.55402 0 4.972 1.07346 3.02284 3.02284C1.07346 4.972 0 7.55402 0 10.2928V19.707C0 22.446 1.07346 25.028 3.02284 26.9772C4.972 28.9265 7.55402 30 10.2928 30H19.7072C22.446 30 25.028 28.9265 26.9772 26.9772C28.9263 25.028 30 22.446 30 19.707V10.2928C30 7.55402 28.9263 4.972 26.9772 3.02284ZM15 22.9395C10.6222 22.9395 7.06055 19.3778 7.06055 15C7.06055 10.6222 10.6222 7.06055 15 7.06055C19.3778 7.06055 22.9395 10.6222 22.9395 15C22.9395 19.3778 19.3778 22.9395 15 22.9395ZM23.7955 7.44759C23.632 7.61101 23.4052 7.70485 23.1741 7.70485C22.9427 7.70485 22.7163 7.61101 22.5529 7.44759C22.3888 7.28394 22.2952 7.05734 22.2952 6.82594C22.2952 6.59454 22.3888 6.36772 22.5529 6.2043C22.7163 6.04065 22.9424 5.94704 23.1741 5.94704C23.4052 5.94704 23.632 6.04065 23.7955 6.2043C23.9591 6.36772 24.053 6.59454 24.053 6.82594C24.053 7.05711 23.9591 7.28394 23.7955 7.44759Z" fill="#628578"/>
</g>
<defs>
<clipPath id="clip0">
<rect width="30" height="30" fill="white"/>
</clipPath>
</defs>
</svg>
