<svg width="30" height="30" viewBox="0 0 30 30" fill="none" xmlns="http://www.w3.org/2000/svg">
<path d="M27.4412 21.0339C27.0156 20.8001 26.4813 20.9556 26.2477 21.381C26.0139 21.8064 26.1693 22.3408 26.5948 22.5745C27.6417 23.1496 28.2422 23.7872 28.2422 24.3238C28.2422 24.9801 27.3123 25.9973 24.7024 26.884C22.1239 27.7601 18.6782 28.2425 15 28.2425C11.3218 28.2425 7.87605 27.7601 5.29764 26.884C2.6877 25.9974 1.75781 24.9801 1.75781 24.3238C1.75781 23.7872 2.35828 23.1496 3.40523 22.5744C3.83068 22.3407 3.98607 21.8064 3.75234 21.3809C3.51861 20.9555 2.98441 20.8001 2.55885 21.0338C1.39154 21.6751 0 22.7665 0 24.3238C0 25.5176 0.821016 27.2196 4.73215 28.5484C7.48793 29.4847 11.1345 30.0003 15 30.0003C18.8655 30.0003 22.5121 29.4847 25.2679 28.5484C29.179 27.2196 30 25.5176 30 24.3238C30 22.7665 28.6085 21.6751 27.4412 21.0339Z" fill="#666666"/>
<path d="M8.3642 25.6127C10.1484 26.1167 12.505 26.3944 14.9998 26.3944C17.4947 26.3944 19.8513 26.1168 21.6355 25.6127C23.8182 24.9961 24.925 24.1035 24.925 22.9599C24.925 21.8162 23.8182 20.9237 21.6355 20.3071C21.1509 20.1702 20.6239 20.0502 20.0636 19.9478C19.7593 20.4735 19.4405 21.0146 19.1072 21.5713C19.7273 21.6643 20.3096 21.7784 20.8383 21.9131C22.4447 22.3223 23.0316 22.7829 23.1523 22.9599C23.0316 23.1371 22.4448 23.5977 20.8384 24.0068C19.318 24.394 17.3617 24.6149 15.3014 24.6347C15.2016 24.6421 15.1011 24.6462 14.9998 24.6462C14.8985 24.6462 14.798 24.6421 14.6982 24.6347C12.6379 24.6149 10.6816 24.3941 9.16119 24.0068C7.55479 23.5977 6.96797 23.137 6.84733 22.9599C6.96797 22.7829 7.55485 22.3223 9.16125 21.9131C9.69 21.7785 10.2722 21.6643 10.8925 21.5713C10.5591 21.0146 10.2403 20.4734 9.93604 19.9478C9.37576 20.0502 8.84871 20.1702 8.3642 20.3071C6.18141 20.9237 5.07463 21.8163 5.07463 22.9599C5.07463 24.1035 6.18141 24.9961 8.3642 25.6127Z" fill="#666666"/>
<path d="M14.9999 22.8887C15.7823 22.8887 16.493 22.49 16.9011 21.8222C19.7611 17.1431 23.1702 10.9764 23.1702 8.17025C23.1702 3.66516 19.505 0 14.9999 0C10.4947 0 6.82956 3.66516 6.82956 8.17025C6.82956 10.9764 10.2387 17.1431 13.0986 21.8222C13.5068 22.49 14.2175 22.8887 14.9999 22.8887ZM11.7159 7.60928C11.7159 5.79856 13.1891 4.32539 14.9999 4.32539C16.8107 4.32539 18.2839 5.79856 18.2839 7.60928C18.2839 9.42006 16.8107 10.8932 14.9999 10.8932C13.1891 10.8932 11.7159 9.42012 11.7159 7.60928Z" fill="#666666"/>
</svg>
