<svg width="30" height="30" viewBox="0 0 30 30" fill="none" xmlns="http://www.w3.org/2000/svg">
<g clip-path="url(#clip0)">
<path d="M25.8477 20.8799C24.0354 19.3299 22.1962 18.391 20.4061 19.9387L19.3372 20.8741C18.5552 21.5531 17.1011 24.7258 11.4793 18.2587C5.85859 11.7997 9.20338 10.7941 9.9866 10.1209L11.0613 9.18432C12.842 7.6331 12.17 5.68032 10.8857 3.67017L10.1107 2.45261C8.82055 0.447146 7.41567 -0.869927 5.6303 0.678951L4.66562 1.52188C3.87655 2.09671 1.67089 3.96519 1.13586 7.51485C0.491961 11.774 2.52318 16.6512 7.17684 22.0027C11.8246 27.3564 16.3753 30.0456 20.6859 29.9988C24.2684 29.9601 26.4319 28.0378 27.1085 27.3389L28.0767 26.4948C29.8574 24.9471 28.7511 23.3712 26.9376 21.8177L25.8477 20.8799Z" fill="#628578"/>
</g>
<defs>
<clipPath id="clip0">
<rect width="30" height="30" fill="white"/>
</clipPath>
</defs>
</svg>
