<svg width="24" height="24" viewBox="0 0 24 24" fill="none" xmlns="http://www.w3.org/2000/svg">
<path d="M18.2462 15.8762C17.4622 15.1021 16.4833 15.1021 15.7042 15.8762C15.1099 16.4655 14.5156 17.0548 13.9313 17.6541C13.7715 17.819 13.6366 17.8539 13.4419 17.744C13.0573 17.5343 12.6478 17.3645 12.2782 17.1348C10.5552 16.051 9.11191 14.6576 7.8334 13.0895C7.19914 12.3104 6.63479 11.4764 6.24025 10.5375C6.16035 10.3477 6.17533 10.2228 6.33015 10.068C6.92446 9.49368 7.50378 8.90437 8.0881 8.31506C8.90215 7.49602 8.90215 6.53714 8.08311 5.7131C7.61865 5.24365 7.15419 4.78418 6.68973 4.31473C6.21029 3.83529 5.73584 3.35086 5.25141 2.87641C4.46732 2.11231 3.48847 2.11231 2.70937 2.88141C2.11007 3.47072 1.53574 4.07501 0.926454 4.65434C0.362113 5.18871 0.077445 5.84295 0.0175149 6.60705C-0.0773744 7.8506 0.22727 9.02423 0.656769 10.1679C1.53574 12.5351 2.87418 14.6377 4.49729 16.5654C6.68973 19.1724 9.30668 21.235 12.3681 22.7232C13.7465 23.3924 15.1748 23.9068 16.728 23.9917C17.7968 24.0517 18.7257 23.782 19.4698 22.948C19.9792 22.3786 20.5536 21.8592 21.0929 21.3149C21.892 20.5058 21.897 19.527 21.1029 18.7279C20.154 17.774 19.2001 16.8251 18.2462 15.8762Z" fill="#666666"/>
<path d="M17.2924 11.8961L19.1353 11.5815C18.8456 9.88849 18.0465 8.35528 16.8329 7.1367C15.5494 5.8532 13.9263 5.04414 12.1384 4.79443L11.8787 6.64727C13.2621 6.84204 14.5206 7.46632 15.5145 8.46016C16.4534 9.39906 17.0677 10.5877 17.2924 11.8961Z" fill="#666666"/>
<path d="M20.174 3.88547C18.0464 1.75795 15.3546 0.414516 12.383 0L12.1234 1.85284C14.6904 2.21242 17.0176 3.37606 18.8555 5.20892C20.5985 6.95189 21.7421 9.15432 22.1566 11.5765L23.9995 11.2619C23.5151 8.45513 22.1916 5.90811 20.174 3.88547Z" fill="#666666"/>
</svg>
