<svg width="20" height="19" viewBox="0 0 20 19" fill="none" xmlns="http://www.w3.org/2000/svg">
<circle cx="10" cy="9" r="10" fill="#628578"/>
<path d="M15.9737 13.2978C15.9398 13.1955 15.7238 13.0449 15.3261 12.8462C15.2183 12.7835 15.0647 12.6984 14.866 12.5905C14.6672 12.4825 14.4867 12.383 14.3249 12.2921C14.1627 12.2012 14.0108 12.1131 13.8689 12.028C13.8462 12.011 13.7752 11.9613 13.6558 11.8788C13.5364 11.7964 13.4357 11.7353 13.3532 11.6955C13.2708 11.6559 13.1898 11.6359 13.1102 11.6359C12.9966 11.6359 12.8547 11.7169 12.6843 11.8788C12.5139 12.0408 12.3576 12.2168 12.2157 12.4073C12.0737 12.5977 11.9231 12.7737 11.7641 12.9357C11.605 13.0977 11.4742 13.1786 11.372 13.1786C11.3208 13.1786 11.2568 13.1643 11.1802 13.1361C11.1036 13.1077 11.0453 13.0834 11.0053 13.0638C10.9657 13.0437 10.8977 13.0041 10.801 12.9442C10.7042 12.8846 10.6503 12.8519 10.639 12.8462C9.86061 12.4143 9.19305 11.9199 8.63619 11.3633C8.0795 10.8063 7.58511 10.1389 7.15332 9.3604C7.14765 9.34903 7.1149 9.29503 7.05529 9.19849C6.99559 9.10186 6.9558 9.03377 6.93592 8.99389C6.91604 8.95416 6.89189 8.89589 6.86353 8.81921C6.83517 8.74252 6.82093 8.67864 6.82093 8.62744C6.82093 8.52524 6.90192 8.39449 7.06386 8.23538C7.22577 8.07637 7.40195 7.92574 7.59222 7.7838C7.78263 7.64186 7.95863 7.48556 8.1206 7.31517C8.28252 7.14469 8.36347 7.00272 8.36347 6.88911C8.36347 6.80962 8.34359 6.72857 8.30386 6.64622C8.2641 6.56368 8.20302 6.46296 8.1206 6.34359C8.03816 6.22427 7.98846 6.15332 7.97138 6.13048C7.88625 5.98854 7.79828 5.83657 7.70726 5.67463C7.61625 5.51272 7.5169 5.33224 7.4089 5.13341C7.30099 4.93466 7.21583 4.7812 7.15326 4.67326C6.95451 4.27561 6.80398 4.05961 6.70168 4.02564C6.66189 4.0086 6.60218 4 6.52272 4C6.36923 4 6.16899 4.02836 5.92185 4.08525C5.67463 4.14206 5.48009 4.20164 5.33803 4.26424C5.05394 4.38349 4.75284 4.73006 4.43463 5.30382C4.14487 5.8378 4 6.3663 4 6.88896C4 7.04225 4.00994 7.19138 4.02982 7.3364C4.0497 7.48126 4.08522 7.64464 4.13642 7.82649C4.18752 8.00828 4.22875 8.14332 4.25991 8.23126C4.29111 8.31926 4.34934 8.47691 4.4346 8.70425C4.51973 8.93153 4.57093 9.07067 4.58797 9.1218C4.78681 9.67864 5.0226 10.1757 5.29529 10.6133C5.74394 11.3405 6.35621 12.0921 7.13174 12.8676C7.90729 13.6432 8.6587 14.2554 9.38598 14.7042C9.82344 14.9769 10.3207 15.2127 10.8775 15.4116C10.9286 15.4286 11.0678 15.4797 11.295 15.5651C11.5223 15.6503 11.68 15.7085 11.768 15.7398C11.856 15.7711 11.9911 15.8123 12.1727 15.8635C12.3547 15.9147 12.518 15.9502 12.6628 15.9703C12.8078 15.9899 12.9569 16 13.1103 16C13.6329 16 14.1614 15.855 14.6955 15.5653C15.2692 15.2472 15.6157 14.9461 15.735 14.6618C15.7977 14.5198 15.8572 14.3253 15.914 14.078C15.9709 13.8309 15.9992 13.6307 15.9992 13.4772C15.9994 13.3975 15.9909 13.3379 15.9737 13.2978Z" fill="white"/>
</svg>
