<svg width="30" height="30" viewBox="0 0 30 30" fill="none" xmlns="http://www.w3.org/2000/svg">
<path d="M15 30C23.2843 30 30 23.2843 30 15C30 6.71573 23.2843 0 15 0C6.71573 0 0 6.71573 0 15C0 23.2843 6.71573 30 15 30Z" fill="#039BE5"/>
<path d="M6.86481 14.6749L21.3273 9.09864C21.9986 8.85614 22.5848 9.26239 22.3673 10.2774L22.3686 10.2761L19.9061 21.8774C19.7236 22.6999 19.2348 22.8999 18.5511 22.5124L14.8011 19.7486L12.9923 21.4911C12.7923 21.6911 12.6236 21.8599 12.2361 21.8599L12.5023 18.0436L19.4523 11.7649C19.7548 11.4986 19.3848 11.3486 18.9861 11.6136L10.3973 17.0211L6.69481 15.8661C5.89106 15.6111 5.87356 15.0624 6.86481 14.6749Z" fill="white"/>
</svg>
