<svg width="20" height="20" viewBox="0 0 20 20" fill="none" xmlns="http://www.w3.org/2000/svg">
<path d="M9.99988 19.9999C15.5227 19.9999 19.9998 15.5228 19.9998 10C19.9998 4.47722 15.5227 0.00012207 9.99988 0.00012207C4.4771 0.00012207 0 4.47722 0 10C0 15.5228 4.4771 19.9999 9.99988 19.9999Z" fill="#41B4E6"/>
<path d="M20 9.99997C20 9.7563 19.9908 9.51485 19.9737 9.27552L15.8292 5.1311L4.17078 9.717L8.63137 14.1776L8.68988 14.3883L8.76562 14.3119L8.76594 14.3122L8.68988 14.3883L13.6241 19.3225C17.3554 17.8709 20 14.2445 20 9.99997Z" fill="#0091C8"/>
<path d="M9.02883 11.4569L13.548 14.8689L15.8292 5.1311L4.17074 9.71701L7.71828 10.892L14.1926 6.54923L9.02883 11.4569Z" fill="white"/>
<path d="M7.71828 10.8921L8.68988 14.3884L9.02883 11.457L14.1926 6.54932L7.71828 10.8921Z" fill="#D2D2D7"/>
<path d="M10.4976 12.5659L8.68988 14.3884L9.02883 11.457L10.4976 12.5659Z" fill="#B9B9BE"/>
</svg>
