<svg width="20" height="20" viewBox="0 0 20 20" fill="none" xmlns="http://www.w3.org/2000/svg">
<path d="M10.0025 0H9.9975C4.48375 0 0 4.485 0 10C0 12.1875 0.705 14.215 1.90375 15.8612L0.6575 19.5763L4.50125 18.3475C6.0825 19.395 7.96875 20 10.0025 20C15.5162 20 20 15.5138 20 10C20 4.48625 15.5162 0 10.0025 0Z" fill="#4CAF50"/>
<path d="M15.8227 14.1212C15.5814 14.8025 14.6239 15.3675 13.8602 15.5325C13.3377 15.6437 12.6552 15.7325 10.3577 14.78C7.41891 13.5625 5.52641 10.5762 5.37891 10.3825C5.23766 10.1887 4.19141 8.80123 4.19141 7.36623C4.19141 5.93123 4.92016 5.23248 5.21391 4.93248C5.45516 4.68623 5.85391 4.57373 6.23641 4.57373C6.36016 4.57373 6.47141 4.57998 6.57141 4.58498C6.86516 4.59748 7.01266 4.61498 7.20641 5.07873C7.44766 5.65998 8.03516 7.09498 8.10516 7.24248C8.17641 7.38998 8.24766 7.58998 8.14766 7.78373C8.05391 7.98373 7.97141 8.07248 7.82391 8.24248C7.67641 8.41248 7.53641 8.54248 7.38891 8.72498C7.25391 8.88373 7.10141 9.05373 7.27141 9.34748C7.44141 9.63498 8.02891 10.5937 8.89391 11.3637C10.0102 12.3575 10.9152 12.675 11.2389 12.81C11.4802 12.91 11.7677 12.8862 11.9439 12.6987C12.1677 12.4575 12.4439 12.0575 12.7252 11.6637C12.9252 11.3812 13.1777 11.3462 13.4427 11.4462C13.7127 11.54 15.1414 12.2462 15.4352 12.3925C15.7289 12.54 15.9227 12.61 15.9939 12.7337C16.0639 12.8575 16.0639 13.4387 15.8227 14.1212Z" fill="#FAFAFA"/>
</svg>
